<svg xmlns="http://www.w3.org/2000/svg" width="30.6" height="28" viewBox="0 0 30.6 28"><path d="M30.055,28.406l-8.123-6.594a12,12,0,0,0-1.29-15.529A12,12,0,0,0,3.584,6.236a12.137,12.137,0,0,0,8.553,20.689,11.715,11.715,0,0,0,8.171-3.2l8.266,6.737a.977.977,0,0,0,.765.239,1.131,1.131,0,0,0,1-.526A1.225,1.225,0,0,0,30.055,28.406ZM12.089,24.345a9.394,9.394,0,0,1-6.737-2.819,9.592,9.592,0,0,1-2.819-6.737A9.394,9.394,0,0,1,5.352,8.052a9.678,9.678,0,0,1,6.737-2.819,9.394,9.394,0,0,1,6.737,2.819,9.678,9.678,0,0,1,2.819,6.737,9.394,9.394,0,0,1-2.819,6.737A9.313,9.313,0,0,1,12.089,24.345Z" transform="translate(0 -2.7)" fill="#8a8a8a"/></svg>