<svg xmlns="http://www.w3.org/2000/svg" width="232.212" height="60" viewBox="0 0 232.212 60">
    <path id="prefix__Logo" fill="#fff" d="M60.907 34.317a11.538 11.538 0 1 1 19.128-7.526 19.285 19.285 0 0 1-38.5-1.705V0h10.098v25.086a9.231 9.231 0 0 0 9.275 9.231zm49.644 10.1a11.538 11.538 0 1 1 11.085-10.091h3.764c.114 0 .227 0 .339-.006a11.538 11.538 0 1 1 19.043-6.878A19.547 19.547 0 0 1 125.4 44.424h-4.32A19.345 19.345 0 0 1 102.111 60H98.94V49.9h3.172a9.233 9.233 0 0 0 8.439-5.487zM187.71 30q.135.533.225 1.086a9.234 9.234 0 0 0 8.79 6.414v10.1a19.26 19.26 0 0 1-13.389-5.39 11.538 11.538 0 0 1-14.75-17.685 9.231 9.231 0 0 0-9.072 9.23V59.99h-10.1V33.75A19.328 19.328 0 0 1 187.708 30zm10.17-27.115h10.1V28.26a9.231 9.231 0 0 0 9.231 9.231v10.1a19.325 19.325 0 0 1-19.329-19.331V2.885zM96.057 23.943v16.719A19.328 19.328 0 0 1 76.729 59.99V49.895a9.231 9.231 0 0 0 9.231-9.233V23.943h10.1zM176.322 52.2l6.367-5.024a11.966 11.966 0 0 0 11.489 4.385l1.408 7.987a20.074 20.074 0 0 1-19.264-7.348zm36.826-20.85l-.04-8.76a12.922 12.922 0 0 0 11.37-6.861l7.734 4.111a21.681 21.681 0 0 1-19.064 11.51zm-85.39-29.145l1.7 8.475a12.683 12.683 0 0 0-5.509 2.6L118.5 6.556a21.324 21.324 0 0 1 9.258-4.356zm-64.036 0l1.7 8.475a12.682 12.682 0 0 0-5.511 2.6L54.47 6.56a21.324 21.324 0 0 1 9.251-4.36zM13.557 22.943l4.017-7.656a12.684 12.684 0 0 0 5.916 1.452v8.645a21.335 21.335 0 0 1-9.933-2.441zM0 25.053h10.095a9.231 9.231 0 1 0 18.462 0V11.828h10.095v13.225a19.326 19.326 0 1 1-38.652 0z"/>
</svg>
